<?xml version="1.0" encoding="utf-8"?><svg xmlns="http://www.w3.org/2000/svg" xmlns:xlink="http://www.w3.org/1999/xlink"><symbol viewBox="0 0 512 468" id="balance" xmlns="http://www.w3.org/2000/svg"><path fill-rule="evenodd" clip-rule="evenodd" d="M496.999 160.734h-5.91L430.593 9.496a14.998 14.998 0 00-19.496-8.355L307.39 42.613c-8.672-12.101-21.504-21.027-36.391-24.668-12.8-2.444-25.333-1.018-29.999 0-27.629 6.754-48.2 31.707-48.2 61.39 0 3.013.227 5.973.637 8.876L89.761 129.672l-.003.004a15.015 15.015 0 00-8.352 8.351L20.91 289.265H15c-8.285 0-15 6.719-15 15 0 43.711 35.559 79.269 79.266 79.269h32.136c43.707 0 79.266-35.558 79.266-79.269 0-8.281-6.715-15-15-15h-5.914l-54.922-137.308 89.777-35.903c8.676 12.102 21.504 21.028 36.391 24.664V378.5h-17.133c-43.707 0-78.839 30.785-78.839 74.5 0 8.285 6.718 15 15 15h192.804c8.281 0 15-5.766 15-10.266v-4.75c0-43.699-35.993-74.484-79.7-74.484h-17.133V140.718c27.629-6.75 48.2-31.703 48.2-61.382a64.02 64.02 0 00-.633-8.88l71.175-28.464-47.496 118.742h-5.914c-8.281 0-15 6.715-15 15 0 43.707 35.559 79.266 79.27 79.266h32.133c43.706 0 79.265-35.559 79.265-79.266 0-8.285-6.715-15-15-15zM79.265 353.531h32.137c21.93 0 40.563-14.403 46.926-34.25l-.063-.008a1.163 1.163 0 00-.062-.008H32.336c6.36 19.855 24.992 34.266 46.93 34.266zm-26.042-64.266h84.222L95.332 183.988l-42.11 105.277zM177.36 438H335.5c-6.355-19.852-25.426-29.5-47.364-29.5h-64.269c-21.942 0-40.148 9.648-46.507 29.5zM222.8 79.332c0 18.308 14.895 33.199 33.199 33.199 18.309 0 33.2-14.89 33.2-33.2 0-18.304-14.895-33.198-33.2-33.198-18.304 0-33.199 14.894-33.199 33.199zm235.976 81.402L416.667 55.457l-42.113 105.277h84.222zM400.601 225h32.133c21.933 0 40.562-14.407 46.925-34.254a13.744 13.744 0 00-.125-.012H353.667c6.36 19.852 24.996 34.266 46.934 34.266z"/></symbol><symbol viewBox="0 0 885 834" id="cart" xmlns="http://www.w3.org/2000/svg"><g clip-path="url(#ba)" fill-rule="evenodd" clip-rule="evenodd"><path d="M396.799 685.917c40.917 0 74.101 33.192 74.101 74.1 0 40.929-33.188 74.104-74.101 74.104-40.92 0-74.103-33.175-74.103-74.104 0-40.908 33.183-74.1 74.103-74.1zm-15.699 74.1c0-13.966 16.949-20.95 26.801-11.093 6.129 6.12 6.129 16.074 0 22.207-9.848 9.84-26.801 2.857-26.801-11.114zm361.502-74.1c40.921 0 74.1 33.192 74.1 74.1 0 40.929-33.179 74.104-74.1 74.104-40.916 0-74.1-33.175-74.1-74.104 0-40.908 33.184-74.1 74.1-74.1zm-15.704 74.1c0-13.966 16.957-20.95 26.81-11.093 6.132 6.12 6.132 16.074 0 22.207-9.853 9.84-26.81 2.857-26.81-11.114zm-67.94-236.395c95.199-12.456 173.713-76.594 204.941-165.352C903.332 265.5 880.6 221.624 853.5 209.223l-292.754-37.829-383.389-55.945-35.803-25.92c5.032-20.203.792-41.173-10.11-57.42C109.342-.809 64.729-9.646 31.784 12.471-1.138 34.573-9.976 79.193 12.145 112.14c20.552 30.619 60.871 40.823 93.473 23.362l36.545 26.458 150.683 370.949c-5.024 5.762-9.31 12.312-12.757 19.596-26.157 55.387 14.88 118.202 75.759 118.202h457.567c16.126 0 29.199-13.073 29.199-29.203 0-16.125-13.073-29.202-29.199-29.202H355.848c-9.333 0-16.812-3.985-21.723-11.808-8.99-14.337-.933-32.605 14.767-36.306l310.066-40.565zM575.5 233l-159.261-23.777 28.862 99.609 146.861 4.083-6.62-38.039s-5.677-26.59-9.842-41.876zM83.091 64.508c-6.468-9.637-22.195-7.24-24.592 4.958-2.428 12.382 11.254 20.435 20.915 13.955 6.14-4.122 7.776-12.8 3.677-18.913zm325.64 433.308c9.843-1.367 19.655-2.729 29.379-4.005l-37.075-127.992-114.4-3.181 58.209 143.289c21.071-2.166 42.55-5.148 63.879-8.11h.001l.007-.001zm53.37-130.303l34.39 118.67 122.812-16.07-17.172-98.708-140.03-3.892zm-199.387-63.759l121.309 3.372-31.04-107.135-140.76-20.548 50.491 124.311zM640.5 239.5l9.5 73.415s101 6.585 134.5 6.585c16.5-20.667 35.1-63.4-4.5-67-11.666-1.061-25.962-2.219-41.092-3.446-36.23-2.937-77.246-6.262-98.408-9.554zm36.387 221.365l-17.929-89.46L789 373.961c-25.665 38.415-66.224 74.632-112.113 86.904z"/></g><defs><clipPath id="ba"><path d="M0 0h885v834H0z"/></clipPath></defs></symbol><symbol viewBox="0 0 17 17" id="magnifier" xmlns="http://www.w3.org/2000/svg"><path d="M6.139 0A6.139 6.139 0 0110.8 10.133l.256.256h.749l4.722 4.722-1.417 1.417-4.722-4.722v-.75l-.256-.255A6.139 6.139 0 116.139 0zm0 1.889a4.25 4.25 0 100 8.5 4.25 4.25 0 000-8.5z"/></symbol><symbol viewBox="0 0 24 24" id="star" xmlns="http://www.w3.org/2000/svg"><path d="M5.574 15.362l-1.267 7.767a.75.75 0 001.103.777L12 20.264l6.59 3.643a.75.75 0 001.103-.777l-1.267-7.767 5.36-5.494a.75.75 0 00-.423-1.265l-7.378-1.127L12.678.433c-.247-.526-1.11-.526-1.357 0L8.015 7.476.637 8.603a.75.75 0 00-.423 1.265z"/></symbol></svg>